<svg width="502" height="247" viewBox="0 0 502 247" fill="none" xmlns="http://www.w3.org/2000/svg">
<g clip-path="url(#clip0)">
<path d="M75.3829 123.153H7.69704C3.46367 123.153 0 126.616 0 130.85V146.244C0 150.477 3.46367 153.941 7.69704 153.941H76.1045C83.7535 153.941 90.9213 159.184 92.1721 166.737C93.7596 176.358 86.3512 184.729 76.9704 184.729C70.1874 184.729 64.4146 180.303 62.3461 174.194C61.3358 171.163 58.2089 169.335 55.0339 169.335H39.2549C34.5405 169.335 30.7401 173.568 31.606 178.187C35.7431 199.401 54.5047 215.517 76.9223 215.517C104.391 215.517 126.328 191.416 122.72 163.273C119.785 139.99 98.8108 123.153 75.3829 123.153ZM7.69704 107.759H169.335C198.055 107.759 220.713 81.3962 214.459 51.6182C210.803 34.2037 196.708 20.1085 179.293 16.4524C152.642 10.872 128.733 28.4309 124.019 52.7728C123.105 57.391 126.953 61.5763 131.619 61.5763H147.398C150.622 61.5763 153.7 59.7482 154.711 56.7175C156.779 50.608 162.552 46.1822 169.335 46.1822C178.668 46.1822 186.124 54.5527 184.537 64.1741C183.286 71.7268 176.166 76.9704 168.469 76.9704H7.69704C3.46367 76.9704 0 80.4341 0 84.6674V100.062C0 104.295 3.46367 107.759 7.69704 107.759ZM192.426 123.153H117.236C126.52 131.138 133.207 141.818 136.382 153.941H192.426C205.174 153.941 215.517 164.284 215.517 177.032C215.517 189.78 205.174 200.123 192.426 200.123C183.815 200.123 176.407 195.361 172.414 188.385C171.019 185.98 168.229 184.729 165.438 184.729H149.178C143.935 184.729 140.038 189.925 141.818 194.879C150.381 219.221 175.733 235.674 204.068 229.661C223.888 225.475 240.196 209.648 244.814 189.876C253.04 154.662 226.341 123.153 192.426 123.153Z" fill="#1E77FD"/>
</g>
<path d="M303.296 128.08H283.84L280.256 138H274.112L290.24 93.648H296.96L313.024 138H306.88L303.296 128.08ZM301.632 123.344L293.568 100.816L285.504 123.344H301.632ZM323.061 97.232C321.952 97.232 321.013 96.848 320.245 96.08C319.477 95.312 319.093 94.3733 319.093 93.264C319.093 92.1547 319.477 91.216 320.245 90.448C321.013 89.68 321.952 89.296 323.061 89.296C324.128 89.296 325.024 89.68 325.749 90.448C326.517 91.216 326.901 92.1547 326.901 93.264C326.901 94.3733 326.517 95.312 325.749 96.08C325.024 96.848 324.128 97.232 323.061 97.232ZM325.877 102.928V138H320.053V102.928H325.877ZM341.627 108.624C342.651 106.619 344.102 105.061 345.979 103.952C347.899 102.843 350.224 102.288 352.955 102.288V108.304H351.419C344.891 108.304 341.627 111.845 341.627 118.928V138H335.803V102.928H341.627V108.624Z" fill="black"/>
<path d="M389.502 106.448C389.502 110.16 388.222 113.253 385.662 115.728C383.145 118.16 379.283 119.376 374.078 119.376H365.502V138H359.678V93.392H374.078C379.113 93.392 382.931 94.608 385.534 97.04C388.179 99.472 389.502 102.608 389.502 106.448ZM374.078 114.576C377.321 114.576 379.71 113.872 381.246 112.464C382.782 111.056 383.55 109.051 383.55 106.448C383.55 100.944 380.393 98.192 374.078 98.192H365.502V114.576H374.078ZM412.037 138.576C408.751 138.576 405.765 137.829 403.077 136.336C400.431 134.843 398.341 132.731 396.805 130C395.311 127.227 394.565 124.027 394.565 120.4C394.565 116.816 395.333 113.659 396.869 110.928C398.447 108.155 400.581 106.043 403.269 104.592C405.957 103.099 408.965 102.352 412.293 102.352C415.621 102.352 418.629 103.099 421.317 104.592C424.005 106.043 426.117 108.133 427.653 110.864C429.231 113.595 430.021 116.773 430.021 120.4C430.021 124.027 429.21 127.227 427.589 130C426.01 132.731 423.855 134.843 421.125 136.336C418.394 137.829 415.365 138.576 412.037 138.576ZM412.037 133.456C414.127 133.456 416.09 132.965 417.925 131.984C419.759 131.003 421.231 129.531 422.341 127.568C423.493 125.605 424.069 123.216 424.069 120.4C424.069 117.584 423.514 115.195 422.405 113.232C421.295 111.269 419.845 109.819 418.053 108.88C416.261 107.899 414.319 107.408 412.229 107.408C410.095 107.408 408.133 107.899 406.341 108.88C404.591 109.819 403.183 111.269 402.117 113.232C401.05 115.195 400.517 117.584 400.517 120.4C400.517 123.259 401.029 125.669 402.053 127.632C403.119 129.595 404.527 131.067 406.277 132.048C408.026 132.987 409.946 133.456 412.037 133.456ZM443.502 90.64V138H437.678V90.64H443.502ZM459.252 90.64V138H453.428V90.64H459.252Z" fill="#1E77FD"/>
<defs>
<clipPath id="clip0">
<rect width="246.305" height="246.305" fill="white"/>
</clipPath>
</defs>
</svg>
